<?xml version="1.0" standalone="no"?>
<!DOCTYPE svg PUBLIC "-//W3C//DTD SVG 1.1//EN" "http://www.w3.org/Graphics/SVG/1.1/DTD/svg11.dtd" >
<svg xmlns="http://www.w3.org/2000/svg">
<metadata>Generated by IcoMoon</metadata>
<defs>
<font id="icomoon" horiz-adv-x="1024">
<font-face units-per-em="1024" ascent="960" descent="-64" />
<missing-glyph horiz-adv-x="1024" />
<glyph unicode="&#x20;" horiz-adv-x="512" d="" />
<glyph unicode="&#xe900;" glyph-name="heart" d="M295.294 847.059c-77.749 0-144.905-26.662-191.176-71.176-46.015-44.267-74-109.557-74-183.882 0-80.588 34.162-151.147 84.118-211.176 51.217-61.546 115.542-112.036 182.235-164.706l0.941-0.706 2.118-1.647c55.931-44.212 115.698-91.925 161.882-142l44.235-48 44.353 48c46.607 50.476 106.93 98.446 163.294 142.941 0.084 0.066 0.151 0.169 0.235 0.235l1.529 1.176c66.662 52.648 131.003 103.16 182.235 164.706 49.976 60.031 84.118 130.569 84.118 211.176 0 74.325-27.988 139.615-74 183.882-46.265 44.513-113.332 71.177-191.058 71.177-93.671 0-164.471-58.531-210.706-105.176-46.227 46.638-116.754 105.176-210.353 105.176zM295.294 726.588c36.152 0 89.854-34.25 124.824-69.529l85.529-86.353 85.647 86.353c34.868 35.177 88.826 69.529 125.059 69.529 50.984 0 85.271-16.115 107.529-37.529 22.175-21.334 37.059-51.475 37.059-97.059 0-48.414-17.594-87.701-56.235-134.118-39.653-47.636-97.72-94.617-164.118-147.059-0.078-0.060-0.157-0.057-0.235-0.117l-1.529-1.294v0.117c-42.333-33.418-88.559-75.135-133.059-117.059-43.997 41.467-89.676 82.68-131.529 115.765l-3.059 2.471c-66.511 52.526-124.667 99.486-164.353 147.176-38.624 46.414-56.235 85.712-56.235 134.118 0 45.584 14.883 75.726 37.059 97.059 22.259 21.413 56.633 37.529 107.647 37.529zM677.765 323.647c0 0 0-60.235 0-60.235l18.588-53.765-18.706-6.471c0 0 0 60.235 0 60.235l-18.588 53.765z" />
<glyph unicode="&#xe901;" glyph-name="instagram" d="M511.974 614.627c-91.75 0-166.625-74.876-166.625-166.625s74.875-166.626 166.625-166.626c91.75 0 166.624 74.876 166.624 166.626s-74.874 166.625-166.624 166.625zM1011.725 448.002c0 69 0.627 137.375-3.251 206.25-3.872 80-22.125 151-80.621 209.5-58.63 58.625-129.504 76.75-209.504 80.625-68.998 3.875-137.374 3.25-206.249 3.25-69 0-137.375 0.625-206.25-3.25-80-3.875-151-22.125-209.5-80.625-58.625-58.625-76.75-129.5-80.625-209.5-3.875-69-3.25-137.375-3.25-206.25s-0.625-137.378 3.25-206.248c3.875-80 22.125-151.002 80.625-209.504 58.625-58.624 129.5-76.749 209.5-80.621 69-3.878 137.375-3.251 206.25-3.251 69 0 137.372-0.627 206.249 3.251 80 3.872 151.002 22.125 209.504 80.621 58.624 58.63 76.749 129.504 80.621 209.504 4 68.87 3.251 137.249 3.251 206.248zM511.974 191.629c-141.875 0-256.374 114.496-256.374 256.373 0 141.875 114.5 256.375 256.374 256.375s256.378-114.5 256.378-256.375c0-141.877-114.502-256.373-256.378-256.373zM778.848 655.002c-33.126 0-59.872 26.749-59.872 59.875s26.746 59.875 59.872 59.875c33.126 0 59.878-26.75 59.878-59.875 0.006-7.866-1.536-15.656-4.538-22.925-3.008-7.268-7.418-13.873-12.979-19.435s-12.166-9.972-19.437-12.977c-7.264-3.006-15.059-4.548-22.925-4.538z" />
<glyph unicode="&#xe902;" glyph-name="lightning" d="M512 960c288.425 0 512-211.272 512-496.64s-223.575-496.64-512-496.64c-51.807 0-101.509 6.843-148.209 19.684-9.078 2.499-18.732 1.789-27.346-2.015l-101.624-44.859c-26.583-11.735-56.591 7.173-57.482 36.216l-2.788 91.085c-0.343 11.215-5.391 21.709-13.755 29.189-99.622 89.091-160.796 218.074-160.796 367.34 0 285.368 223.575 496.64 512 496.64zM204.546 318.121c-14.433-22.899 13.714-48.704 35.277-32.34l161.554 122.609c10.929 8.294 26.030 8.338 37.005 0.108l119.624-89.718c35.894-26.924 87.124-17.469 111.050 20.488l150.4 238.615c14.431 22.899-13.716 48.704-35.279 32.34l-161.554-122.609c-10.929-8.294-26.030-8.338-37.005-0.105l-119.621 89.715c-35.896 26.921-87.127 17.469-111.050-20.49l-150.4-238.612z" />
<glyph unicode="&#xe903;" glyph-name="list" d="M25.435 224.118h407.056v-122.117h-407.056zM25.435 793.997h976.936v-122.117h-976.936zM25.435 509.057h732.699v-122.117h-732.699z" />
<glyph unicode="&#xe904;" glyph-name="logo" d="M512.827 936.389l-417.997-247.716v-304.88l417.997-247.716 335.315 190.551v-90.512l-335.315-200.080-417.997 252.481v-109.568l417.997-242.95 417.997 242.95v304.882l-335.318-195.314v95.274l335.318 200.077v104.803l-417.997 247.716z" />
<glyph unicode="&#xe905;" glyph-name="phone-c" d="M512 960c-281.849 0-512-230.151-512-512 0-281.851 230.151-512 512-512 281.85 0 512 230.15 512 512 0 281.849-230.149 512-512 512zM512 865.76c230.731 0 417.76-187.031 417.76-417.76 0-230.731-187.029-417.76-417.76-417.76-230.729 0-417.76 187.030-417.76 417.76s187.031 417.76 417.76 417.76zM559.135 305.88l45.033 41.229c6.065 5.484 13.739 9.239 22.090 10.806s17.019 0.884 24.953-1.971l54.883-20.063c8.018-2.979 14.893-8.065 19.758-14.616s7.505-14.274 7.584-22.196v-92.029c-0.047-5.389-1.284-10.714-3.637-15.653s-5.775-9.392-10.057-13.089c-4.283-3.697-9.338-6.563-14.862-8.424s-11.402-2.678-17.28-2.407c-384.586 21.903-462.187 320.079-476.863 434.196-0.681 5.604-0.059 11.276 1.826 16.644s4.99 10.309 9.111 14.5c4.121 4.19 9.164 7.534 14.798 9.812s11.731 3.437 17.889 3.403h97.101c8.665-0.023 17.124-2.42 24.289-6.881s12.709-10.782 15.919-18.151l21.913-50.248c3.222-7.235 4.044-15.179 2.363-22.838s-5.789-14.697-11.812-20.232l-45.033-41.23c0 0 25.934-160.683 200.033-180.562z" />
<glyph unicode="&#xe906;" glyph-name="profile" d="M512 960c67.895 0 133.010-26.971 181.019-74.981s74.981-113.124 74.981-181.019c0-67.895-26.971-133.010-74.981-181.019s-113.124-74.981-181.019-74.981c-67.895 0-133.010 26.971-181.019 74.981s-74.981 113.124-74.981 181.019c0 67.895 26.971 133.010 74.981 181.019s113.124 74.981 181.019 74.981zM512 320c282.88 0 512-114.56 512-256v-128h-1024v128c0 141.44 229.12 256 512 256z" />
<glyph unicode="&#xe907;" glyph-name="savings" d="M992.677 939.268c-2.97 7.398-8.676 13.366-15.935 16.662s-15.51 3.667-23.036 1.036c-7.522-2.631-13.745-8.063-17.369-15.164-3.619-7.101-4.368-15.326-2.080-22.962 47.565-136.704-46.848-238.797-118.835-293.478l-29.082 41.677c-9.779 13.978-31.642 25.6-48.64 25.805l-163.226-0.717c-19.94-0.602-39.345-6.582-56.166-17.306l-480.973-337.254c-11.187-7.873-18.8-19.858-21.17-33.331s0.695-27.337 8.524-38.554l218.573-312.73c16.384-23.296 42.547-20.48 65.894-4.198l480.972 337.306c13.824 9.779 29.798 30.874 35.43 47.002l51.098 161.024c5.632 16.077 2.202 40.602-7.578 54.579l-17.715 25.395c96.666 74.086 197.018 205.005 141.312 365.21zM768.882 460.138c-8.862-6.203-18.857-10.598-29.416-12.938-10.559-2.336-21.476-2.572-32.13-0.689-10.65 1.887-20.823 5.849-29.944 11.666-9.118 5.817-16.998 13.371-23.198 22.237-12.548 17.936-17.467 40.121-13.674 61.68s15.982 40.735 33.898 53.315c14.045 9.84 30.815 15.045 47.959 14.889 17.148-0.156 33.82-5.666 47.683-15.76-13.926-8.397-23.501-13.312-25.293-14.080-6.345-3.026-11.477-8.118-14.553-14.442-3.072-6.325-3.907-13.505-2.367-20.366s5.368-12.993 10.85-17.392c5.482-4.403 12.3-6.814 19.33-6.833 4.403 0 8.909 1.024 13.158 3.021 9.933 4.71 20.582 10.291 31.693 16.896 2.556-15.364 0.721-31.137-5.293-45.501-6.014-14.368-15.963-26.742-28.704-35.702z" />
<glyph unicode="&#xe908;" glyph-name="stats" d="M233.647 387.647c-36.584-0.013-66.235-29.673-66.235-66.259 0-0.033 0-0.066 0-0.099v0.005-270.118c0.013-36.575 29.66-66.222 66.234-66.235h0.001c36.575 0.013 66.222 29.66 66.235 66.234v270.119c0 0.028 0 0.061 0 0.094 0 36.585-29.652 66.245-66.234 66.259h-0.001zM509.529 924.353c-36.575-0.013-66.222-29.66-66.235-66.234v-806.942c0.013-36.575 29.66-66.222 66.234-66.235h0.001c36.575 0.013 66.222 29.66 66.235 66.234v806.942c-0.013 36.575-29.66 66.222-66.234 66.235h-0.001zM790.353 650c-36.575-0.013-66.222-29.66-66.235-66.234v-532.589c0.013-36.575 29.66-66.222 66.234-66.235h0.001c36.575 0.013 66.222 29.66 66.235 66.234v532.589c-0.013 36.575-29.66 66.222-66.234 66.235h-0.001z" />
<glyph unicode="&#xe909;" glyph-name="support" d="M508.538 944.548c-268.023 0-486.077-218.054-486.077-486.076v-201.381c0-49.774 43.601-90.266 97.215-90.266h48.607c12.892 0 25.255 5.124 34.371 14.238 9.116 9.118 14.237 21.48 14.237 34.371v249.99c0 12.891-5.121 25.253-14.237 34.371-9.116 9.114-21.479 14.238-34.371 14.238h-44.136c27.026 188.11 188.889 333.301 384.39 333.301 195.497 0 357.364-145.191 384.39-333.301h-44.138c-12.891 0-25.253-5.124-34.371-14.238-9.114-9.118-14.234-21.48-14.234-34.371v-298.598c0-53.614-43.603-97.213-97.217-97.213h-97.217v48.608h-194.43v-145.825h291.647c107.229 0 194.43 87.201 194.43 194.43 53.614 0 97.217 40.491 97.217 90.266v201.381c0 268.022-218.057 486.076-486.077 486.076z" />
<glyph unicode="&#xe90a;" glyph-name="account" d="M615.131 39.131l-103.131-103.131-103.131 103.131c-202.697 46.811-354.011 228.571-354.011 445.44 0 252.343 204.8 457.143 457.143 457.143s457.143-204.8 457.143-457.143c0-216.869-151.314-398.629-354.011-445.44zM238.766 328.411c67.109-100.114 167.861-163.84 280.549-163.84 112.64 0 213.438 63.678 280.503 163.84-76.080 71.106-176.369 110.592-280.503 110.446-104.152 0.157-204.457-39.333-280.549-110.446zM512 530.286c36.374 0 71.256 14.449 96.976 40.166 25.717 25.721 40.166 60.604 40.166 96.976s-14.449 71.255-40.166 96.975c-25.721 25.719-60.603 40.168-96.976 40.168s-71.256-14.449-96.976-40.168c-25.717-25.719-40.166-60.602-40.166-96.975s14.449-71.255 40.166-96.976c25.721-25.717 60.603-40.166 96.976-40.166z" />
<glyph unicode="&#xe90b;" glyph-name="address" d="M512 448c-58.667 0-106.667 46.080-106.667 102.4s48 102.4 106.667 102.4c58.667 0 106.667-46.080 106.667-102.4s-48-102.4-106.667-102.4zM832 540.16c0 185.856-141.333 317.44-320 317.44s-320-131.584-320-317.44c0-119.808 104-278.528 320-467.968 216 189.44 320 348.16 320 467.968zM512 960c224 0 426.667-164.864 426.667-419.84 0-169.984-142.4-371.2-426.667-604.16-284.267 232.96-426.667 434.176-426.667 604.16 0 254.976 202.667 419.84 426.667 419.84z" />
<glyph unicode="&#xe90c;" glyph-name="arrowdown" d="M170.667 840.667c-0.033 0-0.073 0-0.113 0-37.708 0-71.845-15.286-96.554-40v0c-24.781-24.72-40.113-58.903-40.113-96.667s15.332-71.947 40.11-96.664l438.003-437.67 438 437.667c24.781 24.72 40.113 58.903 40.113 96.667s-15.332 71.947-40.11 96.664l-0.003 0.003c-24.72 24.781-58.903 40.113-96.667 40.113s-71.947-15.332-96.664-40.11l-244.67-244.67-244.667 244.667c-24.709 24.714-58.846 40-96.554 40-0.040 0-0.079 0-0.119 0h0.006z" />
<glyph unicode="&#xe90d;" glyph-name="arrowleft" d="M768 960c-23.563-0.004-44.893-9.557-60.333-25l-487-487 487-487c15.442-15.438 36.772-24.987 60.333-24.987s44.892 9.549 60.333 24.987v0c15.438 15.442 24.987 36.772 24.987 60.333s-9.549 44.892-24.987 60.333l-366.333 366.333 366.333 366.333c15.438 15.442 24.987 36.772 24.987 60.333s-9.549 44.892-24.987 60.333v0c-15.44 15.443-36.771 24.996-60.333 25h-0.001z" />
<glyph unicode="&#xe90e;" glyph-name="arrowright" d="M256 960c-23.563-0.004-44.893-9.557-60.333-25v0c-15.438-15.442-24.987-36.772-24.987-60.333s9.549-44.892 24.987-60.333l366.333-366.333-366.333-366.333c-15.438-15.442-24.987-36.772-24.987-60.333s9.549-44.892 24.987-60.333v0c15.442-15.438 36.772-24.987 60.333-24.987s44.892 9.549 60.333 24.987l487 487-487 487c-15.44 15.443-36.771 24.996-60.333 25h-0.001z" />
<glyph unicode="&#xe90f;" glyph-name="arrowup" d="M512 726.333l-438-437.667c-24.781-24.72-40.113-58.903-40.113-96.667s15.332-71.947 40.11-96.664l0.003-0.003c24.72-24.781 58.903-40.113 96.667-40.113s71.947 15.332 96.664 40.11l244.67 244.67 244.667-244.667c24.72-24.781 58.903-40.113 96.667-40.113s71.947 15.332 96.664 40.11l0.003 0.003c24.781 24.72 40.113 58.903 40.113 96.667s-15.332 71.947-40.11 96.664l-0.003 0.003z" />
<glyph unicode="&#xe910;" glyph-name="burger" d="M157.538 731.538c-26.078-0.018-47.213-21.153-47.231-47.229v-0.002c0.018-26.078 21.153-47.213 47.229-47.231h669.54c26.078 0.018 47.213 21.153 47.231 47.229v0.002c-0.018 26.078-21.153 47.213-47.229 47.231h-0.002zM157.538 495.231c-26.078-0.018-47.213-21.153-47.231-47.229v-0.002c0.018-26.078 21.153-47.213 47.229-47.231h669.54c26.078 0.018 47.213 21.153 47.231 47.229v0.002c-0.018 26.078-21.153 47.213-47.229 47.231h-0.002zM157.538 258.923c-26.078-0.018-47.213-21.153-47.231-47.229v-0.002c0.018-26.078 21.153-47.213 47.229-47.231h669.54c26.078 0.018 47.213 21.153 47.231 47.229v0.002c-0.018 26.078-21.153 47.213-47.229 47.231h-0.002z" />
<glyph unicode="&#xe911;" glyph-name="cart" d="M624.284-1.126c29.777 0 58.336 11.83 79.398 32.887 21.057 21.057 32.881 49.615 32.881 79.398 0 29.777-11.825 58.336-32.881 79.392-21.062 21.057-49.621 32.887-79.398 32.887s-58.336-11.83-79.392-32.887c-21.058-21.057-32.888-49.615-32.888-79.392 0-29.782 11.829-58.341 32.888-79.398 21.057-21.057 49.615-32.887 79.392-32.887zM231.302-1.126c29.779 0 58.338 11.83 79.394 32.887s32.887 49.615 32.887 79.398c0 29.777-11.83 58.336-32.887 79.392s-49.615 32.887-79.394 32.887c-29.778 0-58.337-11.83-79.394-32.887s-32.887-49.615-32.887-79.392c0-29.782 11.829-58.341 32.887-79.398s49.615-32.887 79.394-32.887zM963.261 789.164c14.013 0.452 27.303 6.337 37.058 16.411s15.209 23.546 15.209 37.568c0 14.022-5.454 27.495-15.209 37.568s-23.045 15.959-37.058 16.411h-64.62c-50.634 0-94.424-35.144-105.429-84.548l-70.343-316.744c-11.005-49.404-54.795-84.547-105.434-84.547h-421.725l-80.955 323.93h524.631c13.883 0.633 26.99 6.594 36.589 16.643s14.956 23.411 14.956 37.308c0 13.897-5.357 27.26-14.956 37.308s-22.706 16.009-36.589 16.643h-524.631c-16.411 0.005-32.608-3.732-47.359-10.927s-27.667-17.658-37.767-30.594c-10.1-12.936-17.117-28.004-20.519-44.059s-3.098-32.675 0.887-48.595l80.954-323.818c5.836-23.364 19.317-44.108 38.299-58.929s42.375-22.873 66.459-22.868h421.725c49.136-0.005 96.8 16.745 135.13 47.492 38.33 30.741 65.024 73.638 75.679 121.603l70.397 316.744h64.62z" />
<glyph unicode="&#xe912;" glyph-name="clock-c" d="M512 960c-281.849 0-512-230.151-512-512 0-281.851 230.151-512 512-512 281.85 0 512 230.15 512 512 0 281.849-230.149 512-512 512zM512 865.76c230.731 0 417.76-187.031 417.76-417.76 0-230.731-187.029-417.76-417.76-417.76-230.729 0-417.76 187.030-417.76 417.76s187.031 417.76 417.76 417.76zM513.301 750.201c-0.005 0-0.012 0-0.018 0-29.886 0-54.113-22.777-54.113-50.874 0-0.006 0-0.012 0-0.018v0.001-321.849h342.34c0.005 0 0.012 0 0.018 0 29.886 0 54.113 22.777 54.113 50.874 0 0.006 0 0.012 0 0.018v-0.001c0 0.005 0 0.011 0 0.017 0 28.097-24.227 50.874-54.113 50.874-0.006 0-0.013 0-0.019 0h-234.077v220.067c0 0.005 0 0.011 0 0.017 0 28.097-24.227 50.874-54.113 50.874-0.006 0-0.013 0-0.019 0h0.001z" />
<glyph unicode="&#xe913;" glyph-name="close" d="M91 938c-17.672-0.003-33.67-7.168-45.25-18.75v0c-11.579-11.581-18.74-27.579-18.74-45.25s7.162-33.669 18.74-45.25l832-832c11.581-11.579 27.579-18.74 45.25-18.74s33.669 7.162 45.25 18.74v0c11.579 11.581 18.74 27.579 18.74 45.25s-7.162 33.669-18.74 45.25l-832 832c-11.58 11.582-27.578 18.747-45.25 18.75v0zM877.205 919.853l-832-832c-11.654-11.594-18.866-27.642-18.866-45.375s7.212-33.781 18.863-45.372l0.003-0.003c11.581-11.579 27.579-18.74 45.25-18.74s33.669 7.162 45.25 18.74l832 832c11.654 11.594 18.866 27.642 18.866 45.375s-7.212 33.781-18.863 45.372l-0.003 0.003c-11.581 11.579-27.579 18.74-45.25 18.74s-33.669-7.162-45.25-18.74v0z" />
<glyph unicode="&#xe914;" glyph-name="done" d="M912.8 857.2c-28.030-2.448-52.523-15.853-69.477-35.851l-0.123-0.149-438-522.4-225.2 261.6c-18.88 21.712-46.548 35.359-77.403 35.359-25.678 0-49.149-9.451-67.123-25.065l0.126 0.107c-21.847-18.887-35.588-46.639-35.588-77.601 0-25.586 9.384-48.981 24.898-66.929l-0.11 0.13 382.8-443.6 592.4 706.4c14.997 17.696 24.116 40.788 24.116 66.010 0 31.39-14.124 59.481-36.364 78.265l-0.152 0.125c-17.673 14.922-40.708 23.991-65.862 23.991-3.147 0-6.26-0.142-9.334-0.42l0.396 0.029z" />
<glyph unicode="&#xe915;" glyph-name="edit" d="M97.485-36.669h5.152l238.707 21.755c26.148 2.597 50.605 14.122 69.264 32.628l515.196 515.191c20 21.125 30.798 49.316 30.053 78.394-0.754 29.079-13.005 56.674-34.061 76.738l-156.848 156.849c-20.471 19.228-47.296 30.261-75.371 31s-55.444-8.868-76.898-26.993l-515.195-515.195c-18.503-18.66-30.025-43.117-32.629-69.265l-24.615-238.703c-0.771-8.387 0.317-16.84 3.186-24.753 2.87-7.922 7.45-15.109 13.414-21.048 5.349-5.306 11.692-9.505 18.667-12.353s14.443-4.291 21.977-4.245zM685.379 764.745l156.276-156.275-114.488-111.626-153.414 153.414 111.625 114.488zM175.908 254.701l322.284 319.993 154.559-154.559-320.566-320.566-171.732-16.028 15.456 171.16z" />
<glyph unicode="&#xe916;" glyph-name="email" d="M132.778 821.333c-52.316 0-95.778-43.462-95.778-95.778v-568.889c0-52.316 43.462-95.778 95.778-95.778h758.444c52.316 0 95.778 43.462 95.778 95.778v568.889c0 52.316-43.462 95.778-95.778 95.778zM133.667 724.556h756.667v-566.889h-756.667zM74 748.889c-12.722-3.149-23.224-11.005-29.77-21.571l-0.119-0.207c-4.484-7.197-7.143-15.935-7.143-25.293 0-17.381 9.17-32.62 22.936-41.143l0.207-0.119 451.889-276.111 451.889 276.111c13.973 8.643 23.143 23.882 23.143 41.262 0 9.359-2.659 18.096-7.262 25.499l0.119-0.205c-8.648 13.945-23.872 23.093-41.232 23.093-9.325 0-18.034-2.64-25.42-7.212l0.207 0.119-401.444-245.333-401.444 245.333c-7.188 4.469-15.911 7.117-25.252 7.117-4.011 0-7.909-0.488-11.635-1.409l0.332 0.069z" />
<glyph unicode="&#xe917;" glyph-name="email-c" d="M512 960c-281.849 0-512-230.151-512-512 0-281.851 230.151-512 512-512 281.85 0 512 230.15 512 512 0 281.849-230.149 512-512 512zM512 865.76c230.731 0 417.76-187.031 417.76-417.76 0-230.731-187.029-417.76-417.76-417.76-230.729 0-417.76 187.030-417.76 417.76s187.031 417.76 417.76 417.76zM229.553 663.77c-14.101-7.796-23.552-23.055-23.566-40.628v-346.611c0-25.306 19.572-45.821 43.716-45.821v0c24.144 0 43.716 20.515 43.716 45.821v0 258.636l193.478-142.026c6.993-5.196 15.701-8.306 25.103-8.306s18.109 3.11 25.239 8.402l-0.136-0.096 193.478 142.026v-258.636c0-25.306 19.572-45.821 43.716-45.821v0c24.144 0 43.716 20.515 43.716 45.821v0 346.609c0 0.019 0 0.042 0 0.065 0 25.309-19.574 45.825-43.72 45.825-9.399 0-18.106-3.109-25.235-8.399l0.136 0.096-237.194-174.065-237.194 174.065c-6.976 5.159-15.654 8.245-25.020 8.245-7.396 0-14.363-1.925-20.47-5.323l0.237 0.12z" />
<glyph unicode="&#xe918;" glyph-name="facebook" d="M966.726 942.297h-909.496c-21.872 0-39.543-17.671-39.543-39.543v-909.493c0-21.875 17.671-39.546 39.543-39.546h909.496c21.869 0 39.546 17.67 39.546 39.546v909.493c0 21.872-17.677 39.543-39.546 39.543zM852.544 653.755h-78.963c-61.907 0-73.894-29.411-73.894-72.661v-95.274h147.789l-19.277-149.152h-128.512v-382.952h-154.097v382.828h-128.886v149.276h128.886v109.98c0 127.651 77.974 197.222 191.908 197.222 54.618 0 101.453-4.077 115.168-5.932v-133.334h-0.122z" />
<glyph unicode="&#xe919;" glyph-name="find" d="M177.737 809.929c-69.793-69.69-110.387-163.371-113.508-261.952s31.465-194.642 96.71-268.605c65.246-73.969 156.24-120.272 254.439-129.482 96.409-9.035 192.642 18.354 269.791 76.649l200.656-200.698c4.994-4.994 10.915-8.951 17.432-11.65 6.523-2.705 13.511-4.090 20.564-4.090 7.060 0 14.047 1.385 20.564 4.090 6.523 2.699 12.445 6.656 17.438 11.65 4.987 4.987 8.945 10.909 11.643 17.432 2.705 6.517 4.090 13.505 4.090 20.564 0 7.054-1.385 14.041-4.090 20.564-2.699 6.517-6.656 12.439-11.643 17.432h-0.006l-200.686 200.638c58.145 77.164 85.408 173.329 76.318 269.648-9.258 98.117-55.549 189.021-129.452 254.219-73.909 65.197-169.874 99.791-268.38 96.743s-192.151-43.509-261.883-113.151zM177.737 809.929l4.256-4.262zM649.861 733.897c26.359-25.931 47.321-56.824 61.681-90.897 14.354-34.073 21.823-70.651 21.974-107.625s-7.017-73.612-21.1-107.801c-14.077-34.189-34.786-65.252-60.934-91.396-26.142-26.147-57.206-46.856-91.394-60.933-34.189-14.083-70.826-21.251-107.801-21.1s-73.553 7.62-107.625 21.974c-34.073 14.36-64.966 35.322-90.897 61.679-51.822 52.673-80.73 123.688-80.429 197.578s29.787 144.668 82.036 196.916c52.248 52.249 123.026 81.734 196.916 82.036s144.905-28.608 197.575-80.429zM439.412 929.059c-100.035-3.096-195.068-44.1-265.882-114.824-70.877-70.772-112.125-166.006-115.294-266.118s31.977-197.594 98.235-272.706c66.259-75.117 158.629-122.177 258.353-131.529 96.039-9.001 191.487 18.516 269.059 75.412l197.647-197.765c5.552-5.552 12.163-9.94 19.412-12.941 7.257-3.009 14.981-4.471 22.824-4.471 7.848 0 15.689 1.461 22.941 4.471 7.256 3.002 13.86 7.389 19.412 12.941 5.546 5.546 9.94 12.156 12.941 19.412 3.009 7.253 4.471 15.094 4.471 22.941 0 7.842-1.462 15.567-4.471 22.824-3.002 7.249-7.397 13.861-12.941 19.412l-197.647 197.53c56.789 77.597 83.999 173.077 74.941 269.059-9.402 99.64-56.362 191.908-131.412 258.118-75.056 66.209-172.553 101.331-272.588 98.235zM439.765 917.059c96.977 3.001 191.474-31.109 264.235-95.294 72.755-64.186 118.297-153.642 127.412-250.235 8.948-94.823-17.817-189.446-75.059-265.412l-3.177-4.235 204.353-204.353c4.431-4.436 7.957-9.626 10.353-15.412 2.4-5.79 3.647-11.97 3.647-18.235 0-6.272-1.247-12.571-3.647-18.353-2.396-5.791-5.925-10.983-10.353-15.412-4.435-4.435-9.621-7.957-15.412-10.353-5.783-2.4-12.081-3.647-18.353-3.647-6.265 0-12.445 1.246-18.235 3.647-5.786 2.396-10.977 5.918-15.412 10.353l-204.353 204.353-4.235-3.176c-75.951-57.391-170.735-84.307-265.647-75.412-96.675 9.067-186.238 54.709-250.471 127.529-64.232 72.815-98.249 167.303-95.176 264.353s43.055 189.274 111.765 257.882c68.649 68.562 160.788 108.411 257.765 111.412zM452.235 820.353c-75.477-0.308-147.806-30.394-201.176-83.765s-83.457-125.7-83.765-201.176c-0.307-75.477 29.183-148.079 82.118-201.882 26.488-26.923 58.135-48.272 92.941-62.941 34.805-14.663 72.113-22.317 109.882-22.471 37.769-0.157 75.193 7.143 110.118 21.529 34.924 14.38 66.707 35.526 93.412 62.235 26.711 26.707 47.855 58.487 62.235 93.412 14.386 34.924 21.683 72.349 21.529 110.118s-7.808 75.077-22.471 109.882c-14.669 34.805-36.015 66.452-62.941 92.941-53.801 52.934-126.406 82.425-201.882 82.118zM452.353 808.353c72.303 0.294 141.756-27.998 193.294-78.706 25.792-25.374 46.302-55.601 60.353-88.941 14.045-33.34 21.382-69.233 21.529-105.412 0.145-36.18-6.926-71.959-20.706-105.412-13.774-33.454-34.061-63.83-59.647-89.412-25.58-25.584-55.959-45.873-89.412-59.647-33.453-13.78-69.232-20.853-105.412-20.706-36.179 0.145-72.072 7.484-105.412 21.529-33.341 14.051-63.568 34.563-88.941 60.353-50.709 51.542-78.882 120.991-78.588 193.294s29.109 141.58 80.235 192.706c51.126 51.127 120.403 80.058 192.706 80.353z" />
<glyph unicode="&#xe91a;" glyph-name="grid" d="M46.1 913.919h182.857v-182.857h-182.857zM20.5 939.5v-234h234.1v234zM71.7 888.3h131.7v-131.6h-131.7zM46.1 539.428h182.857v-182.857h-182.857zM20.5 565v-234h234.1v234zM71.7 513.8h131.7v-131.6h-131.7zM46.1 164.936h182.857v-182.857h-182.857zM20.5 190.5v-234h234.1v234zM71.7 139.3h131.7v-131.6h-131.7zM420.55 539.428h182.857v-182.857h-182.857zM395 565v-234h234v234zM446.2 513.8h131.6v-131.6h-131.6zM420.55 164.936h182.857v-182.857h-182.857zM395 190.5v-234h234v234zM446.2 139.3h131.6v-131.6h-131.6zM420.55 913.919h182.857v-182.857h-182.857zM395 939.5v-234h234v234zM446.2 888.3h131.6v-131.6h-131.6zM795.049 539.428h182.857v-182.857h-182.857zM769.4 565v-234h234.1v234zM820.6 513.8h131.7v-131.6h-131.7zM795.049 164.936h182.857v-182.857h-182.857zM769.4 190.5v-234h234.1v234zM820.6 139.3h131.7v-131.6h-131.7zM795.049 913.919h182.857v-182.857h-182.857zM769.4 939.5v-234h234.1v234zM820.6 888.3h131.7v-131.6h-131.7z" />
</font>
</defs>
</svg>
